<svg version="1.1" xmlns="http://www.w3.org/2000/svg" viewBox="0 0 249.28571428571422 89.28571428571428" width="249.28571428571422" height="89.28571428571428">
  <!-- svg-source:excalidraw -->
  
  <defs>
    <style class="style-fonts">
      @font-face {
        font-family: "Virgil";
        src: url("https://excalidraw.com/Virgil.woff2");
      }
      @font-face {
        font-family: "Cascadia";
        src: url("https://excalidraw.com/Cascadia.woff2");
      }
    </style>
  </defs>
  <rect x="0" y="0" width="249.28571428571422" height="89.28571428571428" fill="#ffffff"/><g transform="translate(33.571428571428555 47.14285714285711) rotate(0 3.214285714285751 4.642857142857167)" stroke="none"><path fill="#000000" d="M 0.62,0.20 Q 0.62,0.20 0.62,0.97 0.62,1.75 0.59,1.74 0.56,1.72 0.50,1.86 0.44,1.99 0.34,2.10 0.25,2.22 0.13,2.30 0.02,2.39 -0.11,2.45 -0.24,2.51 -0.39,2.53 -0.53,2.55 -0.68,2.54 -0.82,2.53 -0.96,2.48 -1.10,2.44 -1.22,2.36 -1.35,2.28 -1.45,2.18 -1.55,2.07 -1.62,1.94 -1.70,1.82 -1.74,1.68 -1.78,1.54 -1.78,1.39 -1.79,1.24 -1.76,1.10 -1.73,0.96 -1.56,0.25 -1.40,-0.45 -0.60,-1.43 0.18,-2.42 0.69,-2.99 1.21,-3.56 1.57,-4.13 1.93,-4.70 2.34,-5.23 2.76,-5.76 3.09,-6.32 3.42,-6.87 4.09,-7.50 4.76,-8.13 4.99,-8.57 5.22,-9.00 5.35,-9.09 5.49,-9.17 5.64,-9.23 5.80,-9.28 5.96,-9.29 6.12,-9.30 6.28,-9.28 6.43,-9.25 6.58,-9.19 6.73,-9.13 6.86,-9.03 6.99,-8.94 7.09,-8.81 7.19,-8.69 7.26,-8.54 7.33,-8.40 7.37,-8.24 7.40,-8.08 7.39,-7.92 7.39,-7.76 7.34,-7.61 7.30,-7.45 7.22,-7.31 7.14,-7.17 7.03,-7.05 6.92,-6.94 7.42,-7.43 7.93,-7.92 8.16,-7.34 8.39,-6.76 8.48,-6.02 8.57,-5.27 8.39,-3.44 8.20,-1.61 7.91,-0.01 7.62,1.57 7.29,3.07 6.96,4.57 6.62,6.60 6.29,8.62 6.14,10.46 6.00,12.30 5.86,13.49 5.71,14.69 5.60,15.99 5.49,17.30 5.51,17.40 5.53,17.51 5.52,17.61 5.50,17.72 5.46,17.81 5.41,17.91 5.34,17.98 5.26,18.06 5.17,18.11 5.07,18.16 4.97,18.17 4.86,18.19 4.76,18.17 4.65,18.15 4.56,18.10 4.47,18.05 4.39,17.97 4.32,17.89 4.28,17.79 4.24,17.69 4.23,17.59 4.22,17.48 4.24,17.38 4.27,17.28 4.32,17.19 4.38,17.10 4.46,17.03 4.54,16.96 4.64,16.92 4.74,16.89 4.85,16.88 4.96,16.88 5.06,16.91 5.16,16.94 5.25,17.00 5.33,17.06 5.40,17.15 5.46,17.23 5.49,17.33 5.52,17.44 5.52,17.54 5.52,17.65 5.48,17.75 5.45,17.85 5.38,17.93 5.32,18.01 5.23,18.07 5.14,18.13 5.04,18.16 4.93,18.18 4.83,18.18 4.72,18.17 4.62,18.13 4.52,18.09 4.44,18.02 4.37,17.95 4.31,17.85 4.26,17.76 4.26,17.76 4.26,17.76 3.64,16.16 3.03,14.55 3.01,13.31 2.99,12.07 3.14,10.09 3.29,8.12 3.64,6.02 3.99,3.92 4.31,2.47 4.63,1.02 4.91,-0.45 5.18,-1.93 5.36,-3.46 5.54,-5.00 5.49,-5.62 5.44,-6.24 5.33,-7.62 5.22,-9.00 5.35,-9.09 5.49,-9.17 5.64,-9.23 5.80,-9.28 5.96,-9.29 6.12,-9.30 6.27,-9.28 6.43,-9.25 6.58,-9.19 6.73,-9.13 6.86,-9.03 6.99,-8.94 7.09,-8.81 7.19,-8.69 7.26,-8.54 7.33,-8.40 7.37,-8.24 7.40,-8.08 7.39,-7.92 7.39,-7.76 7.34,-7.61 7.30,-7.45 7.22,-7.31 7.14,-7.17 7.03,-7.05 6.92,-6.94 6.66,-6.57 6.41,-6.19 5.95,-5.89 5.48,-5.58 5.07,-4.91 4.67,-4.24 4.32,-3.81 3.97,-3.38 3.49,-2.66 3.01,-1.93 2.53,-1.39 2.04,-0.85 1.44,-0.19 0.84,0.46 0.70,1.09 0.56,1.72 0.50,1.86 0.44,1.99 0.34,2.10 0.25,2.22 0.13,2.30 0.02,2.39 -0.11,2.45 -0.24,2.51 -0.39,2.53 -0.53,2.55 -0.68,2.54 -0.82,2.53 -0.96,2.48 -1.10,2.44 -1.22,2.36 -1.35,2.28 -1.45,2.18 -1.55,2.07 -1.62,1.94 -1.70,1.82 -1.74,1.68 -1.78,1.54 -1.78,1.39 -1.79,1.24 -1.76,1.10 -1.73,0.96 -1.59,0.83 -1.44,0.71 -1.03,0.25 -0.62,-0.20 -0.58,-0.27 -0.55,-0.35 -0.50,-0.41 -0.45,-0.47 -0.39,-0.52 -0.32,-0.56 -0.25,-0.59 -0.18,-0.63 -0.10,-0.64 -0.02,-0.65 0.05,-0.64 0.13,-0.64 0.20,-0.61 0.28,-0.59 0.34,-0.55 0.41,-0.50 0.46,-0.45 0.52,-0.39 0.56,-0.32 0.60,-0.25 0.62,-0.18 0.64,-0.10 0.65,-0.02 0.65,0.05 0.63,0.13 0.62,0.20 0.62,0.20 L 0.62,0.20 Z"/></g><g transform="translate(60.71428571428572 51.428571428571445) rotate(0 6.071428571428555 2.857142857142833)" stroke="none"><path fill="#000000" d="M 0,0.65 Q 0,0.65 -0.61,0.88 -1.23,1.11 -1.69,1.20 -2.16,1.29 -2.32,1.27 -2.47,1.25 -2.62,1.19 -2.76,1.14 -2.89,1.05 -3.02,0.96 -3.12,0.85 -3.22,0.73 -3.30,0.59 -3.37,0.45 -3.41,0.30 -3.44,0.15 -3.44,-0.00 -3.44,-0.15 -3.41,-0.30 -3.37,-0.45 -3.30,-0.59 -3.22,-0.73 -3.12,-0.85 -3.02,-0.96 -2.89,-1.05 -2.76,-1.14 -2.62,-1.19 -2.47,-1.25 -2.32,-1.27 -2.16,-1.29 -1.51,-0.52 -0.85,0.24 -0.15,0.30 0.54,0.36 1.41,0.46 2.27,0.57 3.06,0.62 3.86,0.67 4.80,0.70 5.74,0.72 7.16,0.73 8.59,0.74 9.61,0.75 10.63,0.75 11.27,0.75 11.91,0.76 13.12,1.13 14.32,1.50 14.65,3.44 14.99,5.37 14.96,5.48 14.93,5.58 14.86,5.66 14.80,5.75 14.72,5.81 14.63,5.88 14.53,5.91 14.43,5.94 14.32,5.94 14.22,5.93 14.12,5.90 14.02,5.86 13.93,5.80 13.85,5.73 13.79,5.64 13.73,5.55 13.71,5.45 13.68,5.35 13.69,5.24 13.70,5.13 13.74,5.04 13.78,4.94 13.85,4.86 13.92,4.78 14.01,4.73 14.10,4.67 14.21,4.65 14.31,4.63 14.42,4.65 14.52,4.66 14.62,4.71 14.71,4.75 14.79,4.83 14.87,4.90 14.91,5.00 14.96,5.09 14.98,5.20 14.99,5.30 14.97,5.41 14.95,5.51 14.90,5.60 14.85,5.70 14.77,5.77 14.69,5.84 14.59,5.88 14.50,5.93 14.39,5.93 14.29,5.94 14.18,5.92 14.08,5.89 13.99,5.84 13.90,5.78 13.83,5.70 13.77,5.62 13.73,5.52 13.69,5.42 13.69,5.31 13.68,5.20 13.68,5.20 13.68,5.20 13.36,4.40 13.03,3.59 12.47,3.55 11.90,3.51 11.26,3.51 10.62,3.51 9.60,3.51 8.57,3.50 7.12,3.49 5.67,3.48 4.66,3.45 3.66,3.43 2.78,3.36 1.89,3.29 0.76,3.12 -0.37,2.94 -1.55,2.40 -2.72,1.87 -3.08,1.22 -3.44,0.57 -2.80,0.93 -2.16,1.29 -2.32,1.27 -2.47,1.25 -2.62,1.19 -2.76,1.14 -2.89,1.05 -3.02,0.96 -3.12,0.85 -3.22,0.73 -3.30,0.59 -3.37,0.45 -3.41,0.30 -3.44,0.15 -3.44,0.00 -3.44,-0.15 -3.41,-0.30 -3.37,-0.45 -3.30,-0.59 -3.22,-0.73 -3.12,-0.85 -3.02,-0.96 -2.89,-1.05 -2.76,-1.14 -2.62,-1.19 -2.47,-1.25 -2.32,-1.27 -2.16,-1.29 -1.69,-1.20 -1.23,-1.11 -0.61,-0.88 0,-0.65 0.07,-0.64 0.15,-0.63 0.23,-0.60 0.30,-0.58 0.37,-0.53 0.43,-0.49 0.48,-0.43 0.54,-0.37 0.57,-0.30 0.61,-0.23 0.63,-0.15 0.65,-0.07 0.65,0.00 0.65,0.07 0.63,0.15 0.61,0.23 0.57,0.30 0.54,0.37 0.48,0.43 0.43,0.49 0.37,0.53 0.30,0.58 0.23,0.60 0.15,0.63 0.07,0.64 -0.00,0.65 -0.00,0.65 L 0,0.65 Z"/></g><g transform="translate(72.85714285714283 43.571428571428555) rotate(0 -1.0714285714285552 7.857142857142861)" stroke="none"><path fill="#000000" d="M 0.63,0.15 Q 0.63,0.15 0.78,1.06 0.92,1.97 0.60,2.81 0.29,3.65 0.21,4.43 0.12,5.22 -0.14,6.31 -0.42,7.40 -0.51,8.55 -0.60,9.69 -0.65,10.81 -0.69,11.92 -0.71,12.61 -0.73,13.30 -0.48,14.55 -0.24,15.81 -0.25,15.88 -0.26,15.96 -0.29,16.04 -0.32,16.11 -0.36,16.17 -0.41,16.24 -0.47,16.29 -0.53,16.34 -0.60,16.38 -0.67,16.41 -0.75,16.43 -0.82,16.45 -0.90,16.45 -0.98,16.45 -1.06,16.43 -1.14,16.40 -1.21,16.37 -1.28,16.33 -1.33,16.28 -1.39,16.22 -1.44,16.16 -1.48,16.09 -1.51,16.02 -1.53,15.94 -1.54,15.86 -1.55,15.78 -1.26,15.46 -0.97,15.14 -0.86,15.15 -0.75,15.15 -0.65,15.19 -0.56,15.23 -0.47,15.30 -0.39,15.37 -0.34,15.46 -0.28,15.55 -0.26,15.65 -0.24,15.76 -0.25,15.86 -0.26,15.97 -0.30,16.07 -0.35,16.16 -0.42,16.24 -0.49,16.32 -0.59,16.37 -0.68,16.42 -0.79,16.43 -0.89,16.45 -1.00,16.43 -1.10,16.42 -1.20,16.37 -1.29,16.32 -1.36,16.24 -1.44,16.16 -1.48,16.07 -1.53,15.97 -1.54,15.87 -1.55,15.76 -1.53,15.66 -1.50,15.55 -1.45,15.46 -1.39,15.37 -1.31,15.30 -1.23,15.23 -1.13,15.19 -1.04,15.15 -0.93,15.15 -0.82,15.14 -0.72,15.17 -0.62,15.20 -0.53,15.26 -0.44,15.32 -0.38,15.40 -0.31,15.49 -0.28,15.59 -0.25,15.69 -0.24,15.79 -0.24,15.90 -0.28,16.00 -0.31,16.10 -0.38,16.19 -0.44,16.27 -0.53,16.33 -0.62,16.39 -0.43,16.10 -0.24,15.81 -0.25,15.88 -0.26,15.96 -0.29,16.04 -0.32,16.11 -0.36,16.17 -0.41,16.24 -0.47,16.29 -0.53,16.34 -0.60,16.38 -0.67,16.41 -0.75,16.43 -0.82,16.45 -0.90,16.45 -0.98,16.45 -1.06,16.43 -1.14,16.40 -1.21,16.37 -1.28,16.33 -1.33,16.28 -1.39,16.22 -1.44,16.16 -1.48,16.09 -1.51,16.02 -1.53,15.94 -1.54,15.86 -1.55,15.78 -2.52,14.50 -3.49,13.22 -3.47,12.51 -3.45,11.81 -3.40,10.63 -3.35,9.45 -3.22,8.09 -3.10,6.73 -2.85,5.79 -2.61,4.85 -2.45,3.76 -2.28,2.67 -2.01,1.99 -1.74,1.30 -1.19,0.57 -0.63,-0.15 -0.60,-0.23 -0.58,-0.30 -0.53,-0.37 -0.49,-0.43 -0.43,-0.48 -0.37,-0.54 -0.30,-0.57 -0.23,-0.61 -0.15,-0.63 -0.07,-0.65 0.00,-0.65 0.08,-0.65 0.15,-0.63 0.23,-0.61 0.30,-0.57 0.37,-0.53 0.43,-0.48 0.49,-0.43 0.53,-0.36 0.58,-0.30 0.61,-0.22 0.63,-0.15 0.64,-0.07 0.65,0.00 0.64,0.08 0.63,0.15 0.63,0.15 L 0.63,0.15 Z"/></g><g transform="translate(116.42857142857139 57.85714285714283) rotate(0 5.000000000000028 3.2142857142857224)" stroke="none"><path fill="#000000" d="M -0.54,-0.36 Q -0.54,-0.36 -0.33,-1.11 -0.12,-1.86 0.49,-2.60 1.11,-3.34 1.57,-3.83 2.03,-4.33 2.21,-4.77 2.40,-5.20 2.51,-5.29 2.62,-5.39 2.75,-5.45 2.88,-5.52 3.02,-5.55 3.16,-5.58 3.31,-5.58 3.45,-5.57 3.59,-5.54 3.73,-5.50 3.86,-5.43 3.99,-5.36 4.09,-5.26 4.20,-5.16 4.28,-5.04 4.36,-4.92 4.41,-4.78 4.45,-4.65 4.47,-4.50 4.48,-4.36 4.46,-4.21 4.44,-4.07 4.39,-3.94 4.33,-3.80 4.25,-3.68 4.16,-3.57 4.25,-2.76 4.34,-1.95 4.03,-1.22 3.73,-0.48 2.94,0.72 2.15,1.93 1.88,2.52 1.62,3.11 1.27,3.81 0.93,4.51 0.83,5.04 0.73,5.56 1.99,5.00 3.24,4.44 3.80,4.78 4.35,5.12 4.76,5.88 5.18,6.64 5.77,7.83 6.37,9.02 6.91,9.52 7.45,10.02 8.91,10.39 10.37,10.76 10.47,10.78 10.58,10.80 10.67,10.85 10.76,10.90 10.84,10.98 10.91,11.06 10.95,11.16 10.99,11.25 11.00,11.36 11.01,11.47 10.99,11.57 10.96,11.67 10.90,11.76 10.85,11.85 10.77,11.92 10.68,11.99 10.58,12.02 10.48,12.06 10.38,12.06 10.27,12.07 10.17,12.04 10.07,12.01 9.98,11.95 9.89,11.88 9.83,11.80 9.77,11.71 9.74,11.61 9.71,11.51 9.71,11.40 9.71,11.30 9.75,11.20 9.78,11.10 9.85,11.01 9.91,10.93 10.00,10.87 10.09,10.81 10.20,10.79 10.30,10.76 10.40,10.77 10.51,10.78 10.61,10.82 10.71,10.86 10.79,10.93 10.87,11.00 10.92,11.09 10.97,11.19 10.99,11.29 11.01,11.39 11.00,11.50 10.98,11.61 10.94,11.70 10.89,11.80 10.82,11.87 10.74,11.95 10.65,12.00 10.55,12.04 10.45,12.06 10.34,12.07 10.34,12.07 10.34,12.07 8.62,12.16 6.90,12.25 5.96,11.68 5.03,11.11 4.56,10.58 4.08,10.05 3.80,9.35 3.52,8.65 3.20,7.84 2.87,7.03 2.32,6.75 1.77,6.47 2.20,6.83 2.63,7.18 2.01,7.48 1.38,7.78 0.74,7.84 0.10,7.90 -0.62,7.38 -1.35,6.85 -1.54,6.02 -1.74,5.19 -1.55,4.31 -1.36,3.42 -1.03,2.72 -0.70,2.03 -0.34,1.27 0.01,0.51 0.69,-0.48 1.37,-1.48 1.78,-2.40 2.19,-3.33 2.29,-4.26 2.40,-5.20 2.51,-5.29 2.62,-5.39 2.75,-5.45 2.88,-5.52 3.02,-5.55 3.16,-5.58 3.31,-5.58 3.45,-5.57 3.59,-5.54 3.73,-5.50 3.86,-5.43 3.99,-5.36 4.09,-5.26 4.20,-5.16 4.28,-5.04 4.36,-4.92 4.41,-4.78 4.45,-4.65 4.47,-4.50 4.48,-4.36 4.46,-4.21 4.44,-4.07 4.39,-3.94 4.33,-3.80 4.25,-3.68 4.16,-3.57 3.96,-3.17 3.76,-2.78 3.31,-2.29 2.86,-1.81 2.31,-1.20 1.76,-0.59 1.15,-0.11 0.54,0.36 0.49,0.42 0.44,0.48 0.37,0.53 0.31,0.57 0.24,0.60 0.16,0.63 0.08,0.64 0.01,0.65 -0.06,0.64 -0.14,0.64 -0.22,0.61 -0.29,0.58 -0.36,0.54 -0.42,0.49 -0.48,0.44 -0.53,0.38 -0.57,0.31 -0.61,0.24 -0.63,0.16 -0.65,0.08 -0.65,0.01 -0.65,-0.06 -0.63,-0.14 -0.61,-0.22 -0.58,-0.29 -0.54,-0.36 -0.54,-0.36 L -0.54,-0.36 Z"/></g><g transform="translate(133.57142857142856 60.71428571428572) rotate(0 8.214285714285722 0.714285714285694)" stroke="none"><path fill="#000000" d="M 0.15,-0.63 Q 0.15,-0.63 1.06,-0.75 1.96,-0.86 3.31,-0.58 4.66,-0.29 5.99,-0.18 7.32,-0.07 8.43,0.20 9.55,0.48 10.31,0.57 11.07,0.66 11.99,0.72 12.90,0.79 14.36,0.85 15.82,0.92 15.92,0.90 16.03,0.89 16.13,0.91 16.24,0.93 16.33,0.99 16.42,1.04 16.49,1.12 16.56,1.20 16.60,1.30 16.64,1.40 16.65,1.50 16.65,1.61 16.63,1.71 16.60,1.81 16.54,1.90 16.48,1.99 16.40,2.06 16.32,2.12 16.22,2.16 16.12,2.19 16.01,2.20 15.90,2.20 15.80,2.16 15.70,2.13 15.62,2.07 15.53,2.01 15.47,1.92 15.41,1.83 15.38,1.73 15.35,1.63 15.35,1.52 15.36,1.41 15.40,1.32 15.43,1.22 15.50,1.13 15.57,1.05 15.66,1.00 15.75,0.94 15.85,0.92 15.96,0.89 16.06,0.90 16.17,0.91 16.26,0.96 16.36,1.00 16.44,1.07 16.52,1.14 16.57,1.24 16.62,1.33 16.64,1.43 16.66,1.54 16.64,1.64 16.63,1.75 16.58,1.84 16.53,1.94 16.45,2.01 16.38,2.09 16.28,2.13 16.18,2.18 16.18,2.18 16.18,2.18 14.48,2.76 12.78,3.35 11.75,3.32 10.73,3.29 9.81,3.16 8.89,3.04 7.99,2.80 7.08,2.56 5.60,2.42 4.12,2.28 2.72,1.98 1.32,1.68 0.58,1.16 -0.15,0.63 -0.23,0.60 -0.30,0.58 -0.37,0.53 -0.43,0.49 -0.48,0.43 -0.54,0.37 -0.57,0.30 -0.61,0.23 -0.63,0.15 -0.65,0.07 -0.65,-0.00 -0.65,-0.08 -0.63,-0.15 -0.61,-0.23 -0.57,-0.30 -0.53,-0.37 -0.48,-0.43 -0.43,-0.49 -0.36,-0.53 -0.30,-0.58 -0.22,-0.61 -0.15,-0.63 -0.07,-0.64 0.00,-0.65 0.08,-0.64 0.15,-0.63 0.15,-0.63 L 0.15,-0.63 Z"/></g><g transform="translate(142.8571428571429 66.42857142857139) rotate(0 1.7857142857142776 -7.142857142857139)" stroke="none"><path fill="#000000" d="M -0.62,-0.20 Q -0.62,-0.20 -0.46,-1.52 -0.31,-2.84 -0.15,-3.69 -0.00,-4.55 0.28,-5.79 0.56,-7.03 0.90,-8.02 1.25,-9.02 1.61,-9.85 1.98,-10.68 2.44,-12.37 2.89,-14.05 2.92,-14.16 2.94,-14.26 3.00,-14.35 3.05,-14.44 3.13,-14.51 3.22,-14.58 3.31,-14.62 3.41,-14.65 3.52,-14.66 3.63,-14.66 3.73,-14.63 3.83,-14.61 3.92,-14.55 4.00,-14.48 4.07,-14.40 4.13,-14.31 4.17,-14.21 4.20,-14.11 4.20,-14.01 4.20,-13.90 4.16,-13.80 4.13,-13.70 4.06,-13.62 4.00,-13.53 3.91,-13.47 3.82,-13.41 3.72,-13.39 3.62,-13.36 3.51,-13.36 3.40,-13.37 3.31,-13.41 3.21,-13.45 3.13,-13.52 3.05,-13.59 2.99,-13.68 2.94,-13.77 2.92,-13.88 2.89,-13.98 2.91,-14.09 2.92,-14.19 2.96,-14.29 3.01,-14.38 3.08,-14.46 3.16,-14.54 3.25,-14.59 3.34,-14.64 3.45,-14.65 3.55,-14.67 3.66,-14.65 3.76,-14.63 3.86,-14.58 3.95,-14.53 4.02,-14.45 4.10,-14.38 4.14,-14.28 4.18,-14.18 4.19,-14.08 4.21,-13.97 4.21,-13.97 4.21,-13.97 4.17,-11.88 4.13,-9.78 3.82,-9.00 3.50,-8.23 3.19,-7.36 2.89,-6.50 2.61,-5.30 2.34,-4.11 2.15,-3.10 1.95,-2.08 1.28,-0.93 0.62,0.20 0.58,0.27 0.55,0.35 0.50,0.41 0.45,0.47 0.39,0.52 0.32,0.56 0.25,0.59 0.18,0.63 0.10,0.64 0.02,0.65 -0.05,0.64 -0.13,0.64 -0.20,0.61 -0.28,0.59 -0.34,0.55 -0.41,0.50 -0.46,0.45 -0.52,0.39 -0.56,0.32 -0.60,0.25 -0.62,0.18 -0.64,0.10 -0.65,0.02 -0.65,-0.05 -0.63,-0.13 -0.62,-0.20 -0.62,-0.20 L -0.62,-0.20 Z"/></g><g transform="translate(153.57142857142856 54.28571428571428) rotate(0 3.571428571428612 6.071428571428555)" stroke="none"><path fill="#000000" d="M 0,-0.65 Q 0,-0.65 0.82,-0.87 1.64,-1.09 2.18,-1.09 2.73,-1.09 3.77,-1.38 4.80,-1.67 5.71,-1.73 6.61,-1.79 7.31,-1.45 8.00,-1.10 8.37,-0.37 8.73,0.35 8.82,1.11 8.91,1.87 8.71,2.58 8.50,3.29 8.00,4.23 7.50,5.16 6.78,5.87 6.06,6.57 5.42,7.22 4.79,7.86 4.09,8.68 3.39,9.50 2.82,9.86 2.24,10.22 1.61,10.49 0.98,10.76 0.85,10.90 0.72,11.04 0.56,11.14 0.40,11.25 0.22,11.31 0.05,11.37 -0.13,11.39 -0.32,11.41 -0.51,11.38 -0.70,11.36 -0.88,11.28 -1.05,11.21 -1.21,11.10 -1.36,10.99 -1.48,10.85 -1.61,10.70 -1.69,10.53 -1.78,10.36 -1.82,10.17 -1.86,9.99 -1.85,9.80 -1.85,9.61 -1.80,9.42 -1.75,9.24 -1.66,9.07 -1.57,8.91 0.08,9.24 1.75,9.57 2.56,9.93 3.38,10.29 4.86,11.22 6.33,12.15 6.43,12.19 6.53,12.24 6.61,12.31 6.68,12.38 6.73,12.47 6.78,12.57 6.80,12.67 6.82,12.78 6.81,12.88 6.79,12.99 6.74,13.08 6.69,13.17 6.62,13.25 6.54,13.32 6.44,13.37 6.35,13.41 6.24,13.43 6.14,13.44 6.03,13.42 5.93,13.40 5.84,13.34 5.75,13.29 5.68,13.21 5.61,13.13 5.57,13.03 5.53,12.93 5.52,12.83 5.51,12.72 5.54,12.62 5.57,12.51 5.62,12.43 5.68,12.34 5.77,12.27 5.85,12.21 5.95,12.17 6.05,12.14 6.16,12.14 6.26,12.13 6.36,12.17 6.47,12.20 6.55,12.26 6.64,12.33 6.70,12.41 6.76,12.50 6.79,12.60 6.82,12.71 6.81,12.81 6.81,12.92 6.77,13.02 6.73,13.12 6.66,13.20 6.60,13.28 6.50,13.33 6.41,13.39 6.31,13.41 6.21,13.44 6.10,13.43 6.00,13.42 6.00,13.42 6.00,13.42 4.01,13.28 2.02,13.13 1.44,12.85 0.85,12.57 0.25,12.24 -0.35,11.92 0.31,11.34 0.98,10.76 0.85,10.90 0.72,11.04 0.56,11.14 0.40,11.25 0.23,11.31 0.05,11.37 -0.13,11.39 -0.32,11.41 -0.51,11.38 -0.70,11.36 -0.88,11.28 -1.05,11.21 -1.21,11.10 -1.36,10.99 -1.48,10.85 -1.61,10.70 -1.69,10.53 -1.78,10.36 -1.82,10.17 -1.86,9.99 -1.85,9.80 -1.85,9.61 -1.80,9.43 -1.75,9.24 -1.66,9.08 -1.57,8.91 -1.22,8.75 -0.88,8.60 -0.03,8.04 0.80,7.48 1.46,7.28 2.12,7.09 2.51,6.51 2.90,5.93 3.62,5.29 4.33,4.64 4.85,4.25 5.36,3.85 5.98,2.92 6.60,2.00 6.26,1.22 5.92,0.45 5.15,0.54 4.37,0.63 3.57,0.86 2.76,1.09 2.20,1.09 1.64,1.09 0.82,0.87 0,0.65 -0.07,0.64 -0.15,0.63 -0.23,0.60 -0.30,0.58 -0.37,0.53 -0.43,0.49 -0.48,0.43 -0.54,0.37 -0.57,0.30 -0.61,0.23 -0.63,0.15 -0.65,0.07 -0.65,-0.00 -0.65,-0.07 -0.63,-0.15 -0.61,-0.23 -0.57,-0.30 -0.54,-0.37 -0.48,-0.43 -0.43,-0.49 -0.37,-0.53 -0.30,-0.58 -0.23,-0.60 -0.15,-0.63 -0.07,-0.64 0.00,-0.65 0.00,-0.65 L 0,-0.65 Z"/></g><g transform="translate(115.71428571428572 42.85714285714283) rotate(0 26.428571428571388 7.142857142857139)" stroke="none"><path fill="#000000" d="M 0.60,-0.24 Q 0.60,-0.24 1.23,0.64 1.86,1.53 3.11,2.35 4.36,3.16 5.26,3.52 6.16,3.89 8.40,4.65 10.64,5.42 12.22,5.95 13.80,6.48 16.42,6.89 19.04,7.30 21.63,7.69 24.22,8.08 26.75,8.45 29.29,8.82 31.81,9.19 34.32,9.55 36.57,9.70 38.83,9.85 41.52,10.33 44.22,10.82 45.91,11.01 47.60,11.21 48.83,11.52 50.06,11.82 51.77,12.70 53.47,13.58 53.57,13.62 53.66,13.66 53.74,13.74 53.82,13.81 53.87,13.90 53.92,13.99 53.94,14.10 53.96,14.20 53.94,14.31 53.93,14.41 53.88,14.51 53.83,14.60 53.76,14.68 53.68,14.75 53.58,14.80 53.49,14.84 53.38,14.85 53.28,14.87 53.17,14.85 53.07,14.83 52.98,14.77 52.89,14.72 52.82,14.64 52.75,14.56 52.71,14.46 52.66,14.36 52.66,14.26 52.65,14.15 52.68,14.05 52.70,13.94 52.76,13.86 52.82,13.77 52.90,13.70 52.99,13.64 53.09,13.60 53.19,13.57 53.29,13.56 53.40,13.56 53.50,13.59 53.60,13.63 53.69,13.69 53.77,13.75 53.84,13.84 53.90,13.93 53.93,14.03 53.96,14.13 53.95,14.24 53.95,14.34 53.91,14.44 53.87,14.54 53.80,14.62 53.74,14.71 53.65,14.76 53.56,14.82 53.45,14.84 53.35,14.87 53.24,14.86 53.14,14.85 53.14,14.85 53.14,14.85 51.27,14.65 49.40,14.45 48.34,14.17 47.28,13.90 45.51,13.69 43.74,13.48 41.19,13.01 38.64,12.54 36.29,12.38 33.94,12.22 31.42,11.86 28.90,11.49 26.36,11.12 23.81,10.75 21.21,10.36 18.61,9.97 15.77,9.50 12.93,9.03 11.35,8.47 9.76,7.90 7.45,7.06 5.13,6.21 4.01,5.68 2.90,5.14 1.33,3.85 -0.22,2.57 -0.41,1.40 -0.60,0.24 -0.63,0.16 -0.65,0.09 -0.65,0.01 -0.65,-0.06 -0.63,-0.14 -0.61,-0.22 -0.58,-0.29 -0.54,-0.36 -0.49,-0.42 -0.44,-0.48 -0.37,-0.52 -0.31,-0.57 -0.24,-0.60 -0.16,-0.63 -0.09,-0.64 -0.01,-0.65 0.06,-0.64 0.14,-0.64 0.22,-0.61 0.29,-0.58 0.36,-0.54 0.42,-0.49 0.48,-0.44 0.53,-0.38 0.57,-0.31 0.60,-0.24 0.60,-0.24 L 0.60,-0.24 Z"/></g><g transform="translate(140 32.85714285714283) rotate(0 4.64285714285711 2.842170943040401e-14)" stroke="none"><path fill="#000000" d="M -0.29,-0.58 Q -0.29,-0.58 0.46,-1.11 1.23,-1.63 1.88,-2.22 2.53,-2.80 3.04,-3.24 3.54,-3.68 4.24,-4.12 4.94,-4.57 5.63,-4.94 6.33,-5.32 7.38,-5.82 8.43,-6.32 8.98,-5.63 9.53,-4.94 9.67,-3.28 9.82,-1.61 9.55,-0.61 9.28,0.38 9.18,1.12 9.08,1.86 8.10,3.71 7.12,5.56 7.08,5.66 7.05,5.76 6.98,5.85 6.91,5.93 6.82,5.99 6.73,6.04 6.63,6.07 6.53,6.10 6.42,6.09 6.32,6.08 6.22,6.04 6.12,5.99 6.04,5.92 5.96,5.85 5.91,5.76 5.86,5.67 5.84,5.56 5.82,5.46 5.83,5.35 5.85,5.25 5.89,5.15 5.94,5.06 6.02,4.98 6.09,4.91 6.19,4.86 6.28,4.81 6.39,4.80 6.49,4.78 6.60,4.80 6.70,4.82 6.79,4.88 6.89,4.93 6.96,5.01 7.03,5.09 7.07,5.18 7.11,5.28 7.12,5.39 7.13,5.49 7.10,5.60 7.08,5.70 7.02,5.79 6.96,5.88 6.88,5.95 6.80,6.01 6.70,6.05 6.60,6.09 6.49,6.09 6.39,6.09 6.28,6.06 6.18,6.03 6.10,5.97 6.01,5.90 5.95,5.82 5.89,5.73 5.86,5.63 5.82,5.53 5.83,5.42 5.83,5.32 5.83,5.32 5.83,5.32 6.38,3.41 6.94,1.50 7.05,0.64 7.16,-0.20 7.40,-1.01 7.63,-1.82 7.91,-3.16 8.19,-4.50 7.78,-4.03 7.36,-3.56 6.70,-3.19 6.03,-2.82 5.46,-2.47 4.88,-2.11 4.33,-1.64 3.78,-1.18 2.92,-0.59 2.05,-0.00 1.17,0.29 0.29,0.58 0.21,0.61 0.14,0.64 0.06,0.64 -0.01,0.65 -0.09,0.64 -0.16,0.63 -0.24,0.60 -0.31,0.57 -0.38,0.52 -0.44,0.48 -0.49,0.42 -0.54,0.36 -0.58,0.29 -0.61,0.22 -0.63,0.14 -0.65,0.06 -0.65,-0.01 -0.65,-0.09 -0.62,-0.16 -0.60,-0.24 -0.57,-0.31 -0.53,-0.38 -0.47,-0.44 -0.42,-0.50 -0.35,-0.54 -0.29,-0.58 -0.29,-0.58 L -0.29,-0.58 Z"/></g><g transform="translate(24.285714285714278 12.142857142857139) rotate(0 -7.142857142857139 24.642857142857125)" stroke="none"><path fill="#000000" d="M 0.60,0.24 Q 0.60,0.24 0.54,1.40 0.47,2.57 -0.13,3.71 -0.73,4.85 -1.37,6.11 -2.01,7.37 -3.09,9.72 -4.18,12.08 -5.27,14.34 -6.35,16.60 -7.62,19.76 -8.88,22.93 -9.61,25.27 -10.34,27.61 -10.86,29.43 -11.38,31.25 -11.80,33.41 -12.21,35.56 -12.42,37.06 -12.63,38.57 -12.75,39.60 -12.87,40.63 -12.78,41.35 -12.69,42.06 -12.51,43.02 -12.33,43.97 -10.90,46.28 -9.46,48.58 -9.42,48.68 -9.37,48.78 -9.36,48.88 -9.34,48.99 -9.37,49.09 -9.39,49.19 -9.44,49.29 -9.50,49.38 -9.58,49.45 -9.66,49.52 -9.75,49.56 -9.85,49.60 -9.96,49.60 -10.06,49.61 -10.17,49.58 -10.27,49.56 -10.36,49.50 -10.45,49.44 -10.51,49.36 -10.58,49.27 -10.61,49.17 -10.65,49.07 -10.65,48.96 -10.65,48.86 -10.62,48.76 -10.58,48.66 -10.52,48.57 -10.46,48.49 -10.37,48.43 -10.28,48.37 -10.18,48.34 -10.08,48.31 -9.97,48.31 -9.87,48.32 -9.77,48.35 -9.67,48.39 -9.59,48.46 -9.50,48.53 -9.45,48.62 -9.39,48.71 -9.37,48.81 -9.34,48.92 -9.36,49.02 -9.37,49.13 -9.41,49.22 -9.45,49.32 -9.53,49.40 -9.60,49.48 -9.69,49.53 -9.78,49.58 -9.89,49.60 -9.99,49.61 -10.10,49.60 -10.20,49.58 -10.30,49.53 -10.39,49.48 -10.47,49.41 -10.54,49.33 -10.54,49.33 -10.54,49.33 -12.37,46.93 -14.20,44.54 -14.58,43.52 -14.96,42.51 -15.21,41.49 -15.46,40.47 -15.43,39.36 -15.39,38.24 -15.24,36.63 -15.08,35.01 -14.64,32.73 -14.21,30.45 -13.67,28.59 -13.14,26.73 -12.37,24.29 -11.61,21.84 -10.30,18.58 -9.00,15.32 -7.92,13.09 -6.84,10.85 -5.72,8.43 -4.61,6.02 -3.92,4.73 -3.24,3.45 -2.68,2.49 -2.11,1.53 -1.36,0.64 -0.60,-0.24 -0.57,-0.31 -0.53,-0.38 -0.48,-0.44 -0.42,-0.49 -0.36,-0.54 -0.29,-0.58 -0.22,-0.61 -0.14,-0.64 -0.06,-0.64 0.01,-0.65 0.09,-0.64 0.16,-0.63 0.24,-0.60 0.31,-0.57 0.37,-0.52 0.44,-0.48 0.49,-0.42 0.54,-0.36 0.58,-0.29 0.61,-0.22 0.63,-0.14 0.65,-0.06 0.65,0.01 0.65,0.09 0.63,0.16 0.60,0.24 0.60,0.24 L 0.60,0.24 Z"/></g><g transform="translate(177.85714285714278 21.428571428571445) rotate(0 -3.928571428571388 25.357142857142833)" stroke="none"><path fill="#000000" d="M 0.63,0.15 Q 0.63,0.15 0.61,1.00 0.58,1.86 0.72,2.43 0.86,3.00 0.93,3.99 0.99,4.98 1.24,6.56 1.50,8.14 1.61,9.70 1.72,11.25 1.96,12.44 2.20,13.62 2.32,15.05 2.44,16.47 2.70,19.09 2.96,21.71 3.06,23.25 3.17,24.80 3.22,25.87 3.27,26.95 3.29,28.24 3.32,29.52 3.34,30.48 3.35,31.44 3.38,32.26 3.40,33.08 3.18,34.01 2.96,34.93 2.41,36.00 1.86,37.07 1.45,37.87 1.04,38.68 -0.00,40.13 -1.05,41.59 -1.87,42.77 -2.70,43.96 -3.46,45.08 -4.22,46.20 -5.00,47.14 -5.77,48.08 -7.59,49.27 -9.42,50.46 -9.52,50.49 -9.62,50.51 -9.73,50.50 -9.84,50.49 -9.93,50.45 -10.03,50.41 -10.11,50.34 -10.19,50.27 -10.24,50.17 -10.29,50.08 -10.31,49.98 -10.33,49.87 -10.31,49.77 -10.30,49.66 -10.25,49.57 -10.20,49.47 -10.13,49.40 -10.05,49.32 -9.96,49.28 -9.86,49.23 -9.76,49.22 -9.65,49.20 -9.55,49.22 -9.44,49.24 -9.35,49.30 -9.26,49.35 -9.19,49.43 -9.12,49.51 -9.08,49.61 -9.03,49.70 -9.03,49.81 -9.02,49.92 -9.04,50.02 -9.07,50.12 -9.13,50.21 -9.19,50.30 -9.27,50.37 -9.35,50.43 -9.45,50.47 -9.55,50.50 -9.66,50.51 -9.77,50.51 -9.87,50.48 -9.97,50.45 -10.05,50.38 -10.14,50.32 -10.20,50.23 -10.26,50.15 -10.29,50.05 -10.32,49.94 -10.32,49.84 -10.32,49.73 -10.28,49.63 -10.24,49.53 -10.18,49.45 -10.11,49.37 -10.02,49.31 -9.93,49.25 -9.93,49.25 -9.93,49.25 -8.84,47.84 -7.76,46.43 -7.06,45.59 -6.36,44.75 -5.59,43.61 -4.82,42.48 -3.98,41.27 -3.13,40.07 -2.19,38.78 -1.24,37.49 -0.82,36.68 -0.39,35.86 0.04,35.06 0.49,34.25 0.68,33.66 0.87,33.07 0.88,32.26 0.90,31.46 0.90,30.51 0.90,29.56 0.89,28.31 0.87,27.05 0.83,26.01 0.79,24.96 0.68,23.45 0.58,21.93 0.34,19.29 0.09,16.65 0.00,15.36 -0.08,14.07 -0.32,12.74 -0.57,11.40 -0.66,9.93 -0.74,8.45 -0.94,6.77 -1.14,5.09 -1.18,4.21 -1.21,3.32 -1.31,2.37 -1.40,1.42 -1.02,0.63 -0.63,-0.15 -0.60,-0.23 -0.58,-0.30 -0.53,-0.37 -0.49,-0.43 -0.43,-0.48 -0.37,-0.54 -0.30,-0.57 -0.23,-0.61 -0.15,-0.63 -0.07,-0.65 0.00,-0.65 0.08,-0.65 0.15,-0.63 0.23,-0.61 0.30,-0.57 0.37,-0.53 0.43,-0.48 0.49,-0.43 0.53,-0.36 0.58,-0.30 0.61,-0.22 0.63,-0.15 0.64,-0.07 0.65,0.00 0.64,0.08 0.63,0.15 0.63,0.15 L 0.63,0.15 Z"/></g><g transform="translate(196.42857142857144 14.285714285714278) rotate(0 9.64285714285711 3.928571428571445)" stroke="none"><path fill="#000000" d="M -0.29,0.58 Q -0.29,0.58 -0.78,0.45 -1.27,0.32 -1.55,-0.54 -1.83,-1.40 -1.19,-1.82 -0.56,-2.24 0.24,-2.68 1.05,-3.12 1.97,-3.40 2.90,-3.68 3.45,-3.86 4.00,-4.04 5.29,-4.43 6.57,-4.82 7.11,-4.56 7.66,-4.31 7.72,-4.19 7.79,-4.07 7.82,-3.94 7.86,-3.82 7.86,-3.68 7.86,-3.55 7.83,-3.42 7.80,-3.29 7.74,-3.17 7.68,-3.05 7.59,-2.95 7.51,-2.85 7.40,-2.78 7.29,-2.70 7.16,-2.65 7.04,-2.60 6.91,-2.58 6.78,-2.56 6.65,-2.58 6.51,-2.59 6.39,-2.64 6.26,-2.68 6.15,-2.76 6.04,-2.83 5.95,-2.93 5.86,-3.03 6.54,-2.31 7.22,-1.59 6.66,-0.36 6.11,0.86 5.44,2.02 4.78,3.19 4.08,4.30 3.39,5.41 3.14,6.00 2.89,6.59 2.69,7.15 2.49,7.71 2.94,7.20 3.38,6.69 4.02,6.18 4.65,5.66 5.14,5.24 5.63,4.81 6.24,4.22 6.85,3.64 7.33,3.18 7.81,2.71 8.32,2.45 8.82,2.19 9.03,1.87 9.25,1.54 9.38,1.50 9.51,1.45 9.64,1.44 9.78,1.43 9.91,1.45 10.05,1.47 10.18,1.52 10.30,1.58 10.41,1.66 10.52,1.74 10.61,1.85 10.70,1.95 10.76,2.07 10.82,2.20 10.84,2.33 10.87,2.47 10.87,2.60 10.86,2.74 10.83,2.87 10.79,3.00 10.72,3.12 10.65,3.24 10.56,3.34 10.46,3.44 10.35,3.51 10.23,3.59 10.49,2.78 10.74,1.97 11.20,2.72 11.65,3.47 12.08,4.36 12.50,5.24 12.73,6.17 12.96,7.09 13.41,7.93 13.85,8.77 14.20,9.29 14.54,9.82 15.32,10.18 16.09,10.54 16.64,10.77 17.19,11.00 18.74,11.23 20.30,11.46 20.41,11.48 20.51,11.50 20.60,11.56 20.69,11.61 20.76,11.69 20.83,11.78 20.87,11.87 20.91,11.97 20.92,12.08 20.92,12.18 20.90,12.29 20.87,12.39 20.81,12.48 20.75,12.57 20.66,12.63 20.58,12.69 20.48,12.73 20.38,12.76 20.27,12.76 20.17,12.76 20.07,12.73 19.96,12.70 19.88,12.63 19.79,12.57 19.73,12.48 19.67,12.39 19.65,12.29 19.62,12.19 19.62,12.08 19.63,11.98 19.67,11.88 19.71,11.78 19.78,11.70 19.84,11.62 19.93,11.56 20.03,11.51 20.13,11.48 20.23,11.46 20.34,11.47 20.44,11.48 20.54,11.53 20.64,11.57 20.71,11.64 20.79,11.72 20.84,11.81 20.89,11.90 20.91,12.01 20.93,12.11 20.91,12.22 20.89,12.32 20.84,12.42 20.79,12.51 20.72,12.58 20.64,12.66 20.54,12.70 20.45,12.75 20.34,12.76 20.24,12.77 20.24,12.77 20.24,12.77 18.45,12.73 16.66,12.69 15.95,12.53 15.24,12.36 14.01,11.78 12.79,11.21 12.31,10.51 11.82,9.81 11.28,8.72 10.74,7.63 10.59,6.93 10.43,6.22 9.73,4.85 9.03,3.49 9.14,2.52 9.25,1.54 9.38,1.50 9.51,1.45 9.64,1.44 9.78,1.43 9.91,1.45 10.05,1.47 10.18,1.52 10.30,1.58 10.41,1.66 10.52,1.74 10.61,1.85 10.70,1.95 10.76,2.07 10.82,2.20 10.84,2.33 10.87,2.47 10.87,2.60 10.86,2.74 10.83,2.87 10.79,3.00 10.72,3.12 10.65,3.24 10.56,3.34 10.46,3.44 10.35,3.51 10.23,3.59 9.79,3.97 9.36,4.35 8.89,4.81 8.42,5.27 7.77,5.89 7.12,6.51 6.59,6.98 6.06,7.44 5.24,8.08 4.43,8.71 3.39,9.12 2.35,9.53 1.75,9.35 1.14,9.16 0.83,8.68 0.51,8.20 0.51,7.53 0.51,6.85 0.66,6.28 0.82,5.70 1.15,4.96 1.48,4.21 2.15,3.14 2.82,2.07 3.43,0.99 4.05,-0.07 4.57,-1.21 5.09,-2.35 6.38,-3.33 7.66,-4.31 7.72,-4.19 7.79,-4.07 7.82,-3.94 7.86,-3.82 7.86,-3.68 7.86,-3.55 7.83,-3.42 7.80,-3.29 7.74,-3.17 7.68,-3.05 7.59,-2.95 7.51,-2.85 7.40,-2.78 7.29,-2.70 7.16,-2.65 7.04,-2.60 6.91,-2.58 6.78,-2.56 6.65,-2.58 6.51,-2.59 6.39,-2.64 6.26,-2.68 6.15,-2.76 6.04,-2.83 5.95,-2.93 5.86,-3.03 6.02,-3.19 6.17,-3.36 5.55,-2.91 4.93,-2.46 4.40,-2.18 3.86,-1.91 3.25,-1.86 2.63,-1.80 2.02,-1.42 1.41,-1.05 0.52,-1.09 -0.37,-1.14 -0.03,-0.86 0.29,-0.58 0.35,-0.54 0.42,-0.49 0.47,-0.44 0.53,-0.38 0.57,-0.31 0.60,-0.24 0.62,-0.16 0.65,-0.09 0.65,-0.01 0.65,0.06 0.63,0.14 0.61,0.22 0.58,0.29 0.54,0.36 0.49,0.42 0.44,0.48 0.38,0.52 0.31,0.57 0.24,0.60 0.16,0.63 0.09,0.64 0.01,0.65 -0.06,0.64 -0.14,0.64 -0.21,0.61 -0.29,0.58 -0.29,0.58 L -0.29,0.58 Z"/></g><g transform="translate(223.57142857142856 58.571428571428555) rotate(0 7.14285714285711 3.9285714285714164)" stroke="none"><path fill="#000000" d="M 0.54,0.36 Q 0.54,0.36 0.34,1.03 0.14,1.70 1.01,2.22 1.89,2.74 2.67,3.06 3.45,3.38 4.58,3.72 5.72,4.06 6.85,4.43 7.98,4.79 9.25,5.14 10.53,5.49 11.43,5.63 12.33,5.76 14.03,6.47 15.73,7.17 15.82,7.22 15.92,7.26 15.99,7.34 16.06,7.42 16.11,7.51 16.16,7.61 16.17,7.71 16.18,7.82 16.16,7.92 16.14,8.03 16.09,8.12 16.03,8.21 15.95,8.28 15.88,8.35 15.78,8.39 15.68,8.43 15.57,8.44 15.47,8.45 15.36,8.42 15.26,8.39 15.17,8.34 15.08,8.28 15.02,8.19 14.95,8.11 14.92,8.01 14.88,7.91 14.88,7.80 14.88,7.70 14.91,7.60 14.94,7.50 15.01,7.41 15.07,7.32 15.15,7.26 15.24,7.20 15.34,7.17 15.45,7.14 15.55,7.15 15.66,7.15 15.76,7.19 15.86,7.23 15.94,7.29 16.02,7.36 16.08,7.45 16.13,7.54 16.16,7.64 16.18,7.75 16.17,7.85 16.16,7.96 16.12,8.06 16.08,8.15 16.01,8.23 15.93,8.31 15.84,8.36 15.75,8.41 15.64,8.43 15.54,8.45 15.43,8.44 15.33,8.42 15.33,8.42 15.33,8.42 13.65,8.24 11.96,8.06 10.94,7.90 9.91,7.73 8.59,7.37 7.27,7.00 6.16,6.64 5.04,6.29 3.80,5.91 2.55,5.53 1.60,5.11 0.64,4.70 -0.03,4.26 -0.70,3.81 -1.26,3.13 -1.82,2.44 -1.80,1.60 -1.78,0.75 -1.16,0.19 -0.54,-0.36 -0.49,-0.42 -0.44,-0.48 -0.37,-0.53 -0.31,-0.57 -0.24,-0.60 -0.16,-0.63 -0.08,-0.64 -0.01,-0.65 0.06,-0.64 0.14,-0.64 0.22,-0.61 0.29,-0.58 0.36,-0.54 0.42,-0.49 0.48,-0.44 0.53,-0.38 0.57,-0.31 0.61,-0.24 0.63,-0.16 0.65,-0.08 0.65,-0.01 0.65,0.06 0.63,0.14 0.61,0.22 0.58,0.29 0.54,0.36 0.54,0.36 L 0.54,0.36 Z"/></g><g transform="translate(220.71428571428567 72.14285714285711) rotate(0 8.571428571428612 3.5714285714285836)" stroke="none"><path fill="#000000" d="M 0.54,-0.36 Q 0.54,-0.36 1.16,0.10 1.78,0.56 2.26,0.89 2.73,1.23 3.73,1.77 4.73,2.32 5.91,2.74 7.10,3.16 8.42,3.55 9.75,3.95 10.96,4.32 12.17,4.70 12.83,4.85 13.49,4.99 15.58,5.73 17.67,6.46 17.77,6.49 17.87,6.51 17.96,6.57 18.05,6.63 18.11,6.72 18.18,6.80 18.21,6.90 18.24,7.00 18.25,7.11 18.25,7.21 18.21,7.32 18.18,7.42 18.11,7.50 18.05,7.59 17.96,7.65 17.88,7.71 17.77,7.73 17.67,7.76 17.56,7.76 17.46,7.75 17.36,7.71 17.26,7.68 17.18,7.61 17.10,7.54 17.04,7.45 16.99,7.36 16.96,7.25 16.94,7.15 16.95,7.04 16.96,6.94 17.01,6.84 17.05,6.75 17.12,6.67 17.20,6.59 17.29,6.54 17.38,6.49 17.49,6.47 17.59,6.45 17.70,6.47 17.80,6.49 17.90,6.54 17.99,6.59 18.07,6.66 18.14,6.74 18.18,6.84 18.23,6.93 18.24,7.04 18.25,7.14 18.23,7.25 18.21,7.35 18.15,7.44 18.10,7.53 18.02,7.60 17.94,7.67 17.84,7.71 17.74,7.75 17.63,7.76 17.53,7.76 17.53,7.76 17.53,7.76 15.80,7.63 14.08,7.51 13.52,7.44 12.96,7.38 12.20,7.21 11.43,7.03 10.25,6.66 9.06,6.28 7.66,5.87 6.26,5.45 4.90,4.95 3.53,4.44 2.39,3.77 1.24,3.10 0.55,2.49 -0.14,1.89 -0.34,1.12 -0.54,0.36 -0.58,0.29 -0.61,0.22 -0.63,0.14 -0.65,0.06 -0.65,-0.01 -0.65,-0.08 -0.63,-0.16 -0.61,-0.24 -0.57,-0.31 -0.53,-0.38 -0.48,-0.44 -0.42,-0.49 -0.36,-0.54 -0.29,-0.58 -0.22,-0.61 -0.14,-0.64 -0.06,-0.64 0.01,-0.65 0.08,-0.64 0.16,-0.63 0.24,-0.60 0.31,-0.57 0.37,-0.53 0.44,-0.48 0.49,-0.42 0.54,-0.36 0.54,-0.36 L 0.54,-0.36 Z"/></g></svg>